<?xml version="1.0" standalone="no"?>
<!DOCTYPE svg PUBLIC "-//W3C//DTD SVG 20010904//EN"
 "http://www.w3.org/TR/2001/REC-SVG-20010904/DTD/svg10.dtd">
<svg version="1.0" xmlns="http://www.w3.org/2000/svg"
 width="500.000000pt" height="500.000000pt" viewBox="0 0 500.000000 500.000000"
 preserveAspectRatio="xMidYMid meet">
<metadata>
Created by potrace 1.14, written by Peter Selinger 2001-2017
</metadata>
<g transform="translate(0.000000,500.000000) scale(0.100000,-0.100000)"
fill="#000000" stroke="none">
<path d="M0 2500 l0 -2500 349 0 349 0 38 63 c22 34 50 87 64 117 14 30 28 57
33 58 4 2 7 12 7 23 0 10 4 19 9 19 5 0 12 10 16 23 7 24 10 31 55 132 17 39
36 80 41 93 5 12 13 32 19 45 5 12 19 47 30 77 11 30 25 64 29 75 21 45 61
162 67 193 4 18 11 35 15 38 5 3 9 16 9 30 0 13 4 24 9 24 5 0 11 18 15 40 7
47 16 50 38 13 9 -16 50 -62 92 -104 l76 -76 -28 -25 c-47 -43 -89 -94 -97
-116 -3 -12 -11 -22 -16 -22 -19 0 -9 -55 12 -68 19 -12 27 -10 71 17 84 52
87 42 24 -91 -53 -113 -61 -147 -43 -172 11 -15 21 -17 50 -12 20 4 43 13 51
21 8 8 18 15 23 15 4 0 17 11 27 25 33 44 39 31 32 -73 -12 -201 -24 -288 -45
-334 l-20 -48 54 0 54 0 8 57 c4 32 8 121 8 198 0 114 -4 149 -19 185 -10 25
-22 55 -27 68 -9 24 -6 24 -70 -9 -15 -8 -24 -8 -32 0 -8 8 -8 11 1 11 7 0 12
6 12 14 0 7 7 27 15 42 9 19 15 57 15 106 0 68 -2 79 -21 89 -12 6 -30 9 -40
6 -18 -5 -18 -4 -2 24 10 16 21 29 25 29 4 0 8 7 8 15 0 9 9 15 25 15 14 0 25
-4 25 -10 0 -5 7 -10 15 -10 20 0 19 15 -2 48 -47 72 -191 212 -219 212 -8 0
-21 6 -28 13 -12 10 -10 20 12 62 38 70 49 80 57 54 4 -12 3 -24 -3 -28 -14
-9 -24 -73 -13 -90 4 -7 29 -15 53 -18 40 -5 47 -10 62 -39 19 -42 35 -43 75
-4 l32 29 17 -21 c37 -44 46 -51 50 -38 3 7 0 15 -4 19 -5 3 -15 18 -21 34
l-13 27 45 0 c24 0 46 4 49 9 3 4 33 11 65 15 33 4 63 11 66 16 4 6 19 10 35
10 16 0 31 4 34 9 4 5 24 12 46 16 22 4 42 10 45 15 3 4 21 11 41 15 20 3 44
10 53 15 9 5 34 16 56 25 22 9 48 20 57 25 10 6 25 10 33 10 8 0 15 4 15 9 0
5 12 12 27 16 29 7 135 55 143 64 3 3 22 14 44 24 52 24 38 33 -22 14 -26 -9
-67 -19 -90 -23 -23 -4 -42 -10 -42 -15 0 -5 -10 -9 -23 -9 -13 0 -27 -4 -33
-8 -5 -5 -43 -18 -84 -31 -41 -12 -83 -27 -92 -32 -10 -5 -27 -9 -38 -9 -11 0
-20 -3 -20 -8 0 -7 -61 -26 -125 -39 -16 -3 -32 -9 -35 -13 -3 -5 -34 -13 -70
-19 -36 -7 -103 -19 -150 -27 -106 -20 -220 -28 -220 -17 0 4 11 17 25 28 84
67 118 103 112 120 -6 14 -16 16 -74 10 l-68 -7 29 24 c65 52 126 123 126 145
0 7 3 13 8 13 11 0 42 93 42 127 0 17 -11 47 -25 67 -25 37 -36 126 -16 126 5
0 12 21 16 47 4 27 11 56 16 65 8 14 3 17 -31 20 l-40 3 27 30 c43 45 79 106
112 188 6 15 14 26 19 24 19 -11 82 -36 122 -48 60 -19 333 -20 352 -1 6 6 22
12 35 12 13 0 23 5 23 10 0 6 7 10 15 10 21 0 115 42 115 52 0 4 5 8 11 8 10
0 70 41 98 68 12 12 16 9 26 -15 7 -15 15 -44 19 -64 4 -22 23 -56 46 -82 34
-38 38 -47 27 -59 -8 -7 -43 -38 -78 -69 -206 -181 -219 -229 -64 -229 75 0
76 -1 69 -22 -4 -13 -10 -25 -13 -28 -4 -3 -15 -25 -26 -50 -11 -25 -22 -47
-26 -50 -11 -9 -70 -142 -65 -147 10 -10 136 133 136 153 0 8 4 14 10 14 5 0
12 11 16 25 3 14 10 25 15 25 5 0 9 9 9 19 0 11 5 23 10 26 17 10 11 55 -10
77 -16 18 -31 22 -75 21 -30 -1 -55 1 -55 4 0 2 14 18 30 35 17 17 43 47 58
67 15 20 30 38 33 41 3 3 18 24 32 46 22 35 30 41 51 37 15 -3 29 -9 32 -14 8
-13 144 -11 184 4 19 6 52 22 73 35 21 12 40 22 43 22 3 0 20 11 38 25 18 14
36 25 41 25 9 0 138 62 145 70 9 10 45 31 63 36 9 4 17 10 17 14 0 5 8 11 18
14 16 6 44 29 117 95 48 44 105 112 105 126 0 8 3 15 8 17 11 5 42 68 42 87 0
9 5 22 10 27 14 14 25 141 16 187 -4 20 -20 50 -36 67 -25 27 -31 29 -49 18
-11 -6 -32 -37 -47 -68 -15 -30 -46 -73 -68 -95 l-41 -40 -8 65 c-9 73 -46
200 -57 200 -4 0 -10 11 -14 23 -14 59 -96 99 -131 64 -7 -7 -23 -47 -35 -89
-25 -83 -40 -106 -115 -179 l-50 -49 -7 77 c-9 110 -32 260 -40 269 -5 4 -8
14 -8 22 0 20 -47 114 -68 138 -40 45 -45 54 -34 67 5 6 12 28 16 47 3 19 3
28 -1 20 -3 -8 -25 -34 -47 -58 -23 -24 -45 -51 -50 -60 -14 -24 -65 -74 -111
-108 -22 -16 -42 -31 -45 -34 -14 -14 -169 -100 -180 -100 -6 0 -10 -4 -10
-10 0 -5 -8 -10 -17 -10 -10 0 -31 -7 -47 -15 -15 -8 -37 -15 -47 -15 -11 0
-19 -4 -19 -10 0 -5 -6 -10 -14 -10 -10 0 -16 13 -18 38 -3 37 -3 37 -46 36
-24 0 -47 -5 -50 -11 -4 -6 -24 -13 -44 -17 -21 -4 -38 -11 -38 -16 0 -6 -13
-10 -28 -10 -15 0 -32 -4 -37 -9 -27 -26 -205 -48 -446 -57 -135 -5 -188 -4
-193 5 -5 7 2 11 18 11 14 0 26 4 26 9 0 5 9 12 19 16 29 9 105 84 125 122 21
43 21 108 -1 131 -36 37 -63 72 -63 81 0 5 -4 11 -9 13 -13 5 -71 118 -71 139
0 11 -4 19 -8 19 -14 0 -33 87 -44 197 -14 134 7 353 41 428 5 11 17 46 27 77
18 57 44 86 44 48 0 -10 5 -22 10 -25 6 -3 10 -15 10 -26 0 -10 5 -19 10 -19
6 0 10 -6 10 -12 0 -7 23 -48 50 -91 50 -78 165 -200 250 -267 25 -19 47 -38
48 -42 2 -5 25 -8 50 -8 42 0 49 3 65 31 20 36 23 118 5 182 -11 42 -3 101 10
68 14 -39 172 -193 223 -217 21 -11 39 -22 39 -26 0 -11 105 -29 126 -22 25 9
84 65 84 80 0 18 55 61 95 74 20 7 57 10 83 7 119 -11 238 -30 246 -38 6 -5
25 -9 42 -9 18 0 35 -4 38 -9 3 -5 27 -12 53 -16 27 -4 53 -10 58 -15 6 -4 31
-11 57 -14 51 -8 78 -28 56 -43 -7 -4 -69 -8 -138 -9 -157 0 -171 -6 -270
-105 -31 -32 -63 -72 -70 -90 -8 -19 -18 -37 -23 -40 -5 -4 -11 -31 -13 -60
-2 -30 -1 -46 2 -36 3 9 10 17 15 17 5 0 9 5 9 10 0 17 74 111 121 156 83 77
87 78 224 76 68 -1 126 2 129 7 3 5 22 12 41 15 19 4 35 11 35 16 0 6 7 10 15
10 8 0 15 5 15 10 0 6 6 10 13 10 21 0 167 129 167 147 0 4 10 17 23 28 21 19
87 110 87 120 0 3 11 22 23 43 13 20 36 70 51 110 26 69 56 97 56 53 0 -11 4
-22 9 -25 5 -4 12 -24 16 -46 9 -53 32 -97 56 -110 14 -8 19 -22 19 -56 0 -25
-4 -53 -10 -63 -5 -10 -10 -125 -11 -255 -2 -216 -1 -238 16 -256 10 -11 31
-20 47 -20 27 0 109 43 116 61 2 5 8 9 13 9 14 0 52 41 44 48 -3 3 -14 1 -23
-5 -10 -6 -32 -14 -50 -17 -17 -4 -34 -12 -37 -17 -4 -5 -17 -9 -31 -9 -19 0
-24 5 -24 28 -3 311 -9 515 -15 545 -4 23 -3 42 3 50 17 20 34 221 26 313 -5
58 -3 84 4 84 6 0 14 -4 17 -10 3 -6 13 -10 21 -10 17 0 85 -65 126 -120 36
-49 88 -149 88 -171 0 -9 4 -19 9 -21 10 -3 35 -152 34 -198 -1 -48 -21 -175
-32 -203 -6 -16 -11 -43 -11 -62 0 -19 -5 -37 -10 -40 -5 -3 -10 -15 -10 -25
0 -25 -79 -231 -96 -251 -8 -8 -14 -20 -14 -26 0 -6 -18 -43 -40 -83 -22 -40
-40 -77 -40 -81 0 -5 -4 -9 -9 -9 -16 0 -32 -114 -20 -147 25 -72 126 -48 227
54 18 18 36 33 39 33 3 0 3 -35 0 -77 -5 -80 -20 -121 -57 -160 -11 -12 -20
-27 -20 -33 0 -5 -4 -10 -9 -10 -5 0 -34 -24 -64 -52 -31 -29 -64 -58 -74 -65
-16 -11 -15 -12 10 -12 15 -1 27 -6 27 -12 0 -11 23 -68 42 -103 10 -18 23
-120 35 -260 5 -67 -15 -226 -26 -195 -5 16 -17 29 -51 52 -27 18 -164 25
-174 8 -3 -5 -18 -12 -33 -16 -15 -3 -46 -26 -68 -50 -58 -61 -65 -72 -65 -93
0 -10 -5 -23 -12 -30 -9 -9 -8 -21 2 -52 7 -22 17 -40 22 -40 5 0 16 -6 23
-14 15 -15 133 -30 159 -20 9 3 16 2 16 -3 0 -20 -109 -93 -139 -93 -10 0 -24
-7 -31 -15 -7 -8 -19 -15 -26 -15 -8 0 -14 -4 -14 -10 0 -24 -41 -6 -88 39
-75 72 -139 78 -212 20 -36 -28 -100 -137 -100 -170 0 -10 -4 -21 -10 -24 -5
-3 -10 -1 -10 4 0 6 -9 11 -21 11 -16 0 -19 -4 -14 -17 4 -10 11 -56 16 -103
6 -47 12 -107 15 -135 3 -27 10 -54 15 -60 5 -5 9 -16 9 -25 0 -8 7 -28 15
-44 8 -15 15 -35 15 -42 0 -8 4 -14 9 -14 5 0 12 -11 15 -25 6 -25 22 -47 81
-109 68 -73 133 -98 186 -72 35 17 49 14 49 -13 0 -24 90 -303 101 -315 5 -6
9 -20 9 -33 0 -13 5 -23 10 -23 6 0 10 -5 10 -11 0 -12 23 -68 46 -111 8 -14
14 -33 14 -41 0 -9 3 -17 8 -19 4 -1 27 -41 51 -88 24 -47 50 -92 57 -101 8
-8 14 -20 14 -25 0 -5 12 -22 27 -38 17 -19 23 -31 15 -34 -20 -6 -14 -18 46
-81 l58 -61 547 0 547 0 0 2500 0 2500 -2500 0 -2500 0 0 -2500z m3181 1971
c43 -46 79 -88 79 -93 0 -4 11 -26 24 -47 14 -21 28 -55 31 -75 4 -20 11 -39
16 -42 5 -3 9 -16 9 -30 0 -13 5 -24 10 -24 6 0 10 -8 10 -18 0 -10 7 -28 16
-40 13 -18 13 -25 2 -40 -36 -49 -151 -168 -218 -227 -44 -39 -102 -64 -108
-47 -2 7 -10 12 -17 12 -7 0 -15 4 -17 9 -4 13 -156 91 -176 91 -9 0 -30 7
-46 15 -15 8 -36 15 -45 15 -9 0 -21 4 -27 10 -10 10 -114 29 -201 37 -29 3
-53 9 -53 14 0 5 6 9 13 9 24 0 111 95 167 183 30 48 61 86 69 87 13 0 23 -9
75 -70 31 -38 48 -46 44 -23 -2 12 13 36 40 63 23 24 42 47 42 52 0 5 6 16 13
23 27 31 37 44 37 51 0 4 11 31 25 59 13 29 27 72 31 96 3 24 8 50 10 57 7 23
60 -16 145 -107z m-530 -1309 c62 -70 89 -170 106 -388 l5 -60 -40 -12 c-22
-7 -45 -12 -52 -12 -7 0 -43 -20 -81 -45 -92 -62 -157 -153 -174 -245 -11 -59
-28 -89 -55 -95 -14 -4 -49 -17 -77 -31 -29 -13 -66 -27 -83 -31 -17 -3 -33
-10 -36 -14 -3 -5 -18 -9 -33 -9 -15 0 -32 -5 -39 -12 -8 -8 -65 -13 -170 -16
-136 -3 -154 -2 -137 10 39 27 105 43 126 30 35 -22 65 -15 79 18 14 35 8 49
-14 31 -13 -11 -20 -8 -39 13 -24 26 -61 34 -71 17 -4 -5 -24 -12 -46 -16 -22
-4 -40 -11 -40 -16 0 -5 -7 -9 -16 -9 -8 0 -38 -7 -66 -17 -48 -15 -52 -15
-87 3 -20 10 -42 25 -49 31 -7 7 -19 13 -25 13 -21 1 -125 113 -162 174 -19
33 -35 70 -35 83 0 13 -4 23 -10 23 -5 0 -10 9 -10 19 0 16 9 20 53 24 80 9
127 18 133 28 3 5 18 9 33 9 25 0 29 -5 34 -36 7 -42 42 -84 69 -84 24 0 61
43 72 83 14 50 19 183 7 204 -11 21 -22 16 156 62 78 21 83 21 103 4 22 -19
27 -43 9 -43 -7 0 -27 -16 -45 -35 -27 -27 -34 -42 -34 -75 0 -50 15 -52 64
-5 21 19 39 35 42 35 2 0 4 -33 4 -73 0 -40 7 -99 15 -130 8 -32 15 -67 15
-77 0 -45 63 -79 87 -47 29 37 43 107 43 207 0 113 -17 181 -51 211 -19 16
-18 17 13 23 30 6 64 20 158 64 19 10 43 25 54 34 11 10 29 21 40 24 11 4 31
17 45 30 14 13 33 24 42 24 8 0 43 -29 76 -65 64 -68 73 -75 73 -50 0 8 -4 15
-10 15 -5 0 -10 5 -10 11 0 10 -28 70 -55 118 -13 23 -11 28 18 62 18 21 37
38 43 38 6 1 22 -11 35 -27z m479 -251 c0 -9 6 -23 13 -29 16 -17 17 -303 1
-323 -7 -8 -15 -29 -19 -46 -3 -18 -11 -33 -16 -33 -5 0 -9 -7 -9 -15 0 -33
-18 -12 -23 28 -3 23 -14 58 -23 77 -24 48 -98 117 -134 125 -17 4 -30 8 -30
11 0 8 35 44 43 44 5 0 31 23 58 50 43 44 69 88 93 155 7 19 8 19 27 -4 10
-13 19 -31 19 -40z m287 -160 c-3 -38 -10 -77 -15 -88 -5 -10 -18 -36 -28 -58
-11 -22 -22 -41 -26 -43 -5 -2 -8 -8 -8 -13 0 -22 -108 -129 -175 -175 -41
-27 -46 -17 -10 22 14 15 25 33 25 40 0 8 3 14 8 14 12 0 40 89 52 165 11 70
33 105 66 105 8 0 14 3 14 8 0 4 16 16 35 26 19 11 35 23 35 28 0 9 22 37 29
38 2 0 1 -31 -2 -69z m-529 -161 c61 -37 93 -111 72 -169 -44 -126 -97 -188
-202 -238 -58 -28 -108 -37 -153 -29 -40 8 -99 60 -109 96 -4 14 -12 35 -18
47 -8 17 -6 42 8 103 21 92 54 136 127 168 23 10 53 23 67 30 14 6 59 11 100
11 58 1 82 -4 108 -19z m-1463 -766 c-8 -16 -15 -35 -15 -41 0 -7 -4 -13 -10
-13 -5 0 -10 -6 -10 -14 0 -7 -11 -34 -25 -60 -14 -26 -25 -54 -25 -64 0 -11
-3 -13 -11 -5 -8 8 -8 17 0 31 6 11 11 34 11 51 0 16 5 33 10 36 6 3 10 20 10
36 0 41 17 69 40 69 11 0 20 5 20 12 0 8 3 9 10 2 7 -7 6 -20 -5 -40z m1910
-75 c17 -22 36 -46 43 -54 6 -7 12 -20 12 -27 0 -7 7 -22 15 -32 8 -11 15 -28
15 -38 0 -10 5 -18 10 -18 6 0 10 -8 10 -17 0 -9 7 -45 16 -80 16 -64 16 -119
-1 -78 -4 11 -16 29 -25 40 -9 11 -23 36 -30 55 -18 46 -51 90 -67 90 -7 0
-13 5 -13 10 0 14 -27 12 -33 -2 -2 -7 -2 -28 1 -47 5 -32 4 -33 -19 -21 -13
7 -26 16 -29 19 -3 3 -16 12 -29 19 -20 12 -26 12 -38 -1 -13 -13 -13 -21 6
-71 l21 -55 -35 -34 c-19 -19 -35 -39 -35 -46 0 -6 -7 -11 -15 -11 -12 0 -15
19 -15 114 0 63 4 117 9 120 4 3 11 24 15 46 7 47 26 80 70 128 24 26 37 32
70 32 36 -1 45 -6 71 -41z m-1892 -130 c7 -26 -2 -77 -14 -85 -5 -3 -9 -12 -9
-20 0 -23 -87 -137 -95 -124 -4 7 -2 17 4 23 6 6 11 17 11 24 0 7 11 36 24 65
13 29 32 72 42 96 20 47 29 52 37 21z m1910 -91 c8 -18 21 -48 27 -65 7 -18
18 -33 25 -33 12 0 25 -21 25 -40 0 -4 -9 -6 -20 -3 -22 6 -28 -15 -9 -34 6
-6 9 -21 7 -33 -3 -22 -6 -23 -113 -21 -60 1 -115 7 -122 13 -7 6 -13 23 -13
39 0 32 32 48 56 28 13 -10 17 -10 25 2 14 23 10 48 -11 66 -11 10 -20 28 -20
40 0 13 -4 23 -9 23 -5 0 -11 7 -15 15 -9 26 26 17 63 -15 18 -17 43 -30 54
-30 17 0 19 5 14 40 -6 50 13 54 36 8z m114 -220 c-11 -80 -31 -168 -39 -168
-4 0 -8 -11 -8 -24 0 -30 -38 -56 -83 -56 -27 0 -44 10 -85 49 -60 57 -117
144 -124 186 -3 17 -3 26 -1 20 5 -13 83 -45 111 -45 12 0 22 5 22 10 0 6 24
10 54 10 49 0 55 -2 58 -22 7 -48 48 -11 72 65 11 36 28 18 23 -25z m-2104
-18 c37 0 34 -13 -8 -36 -19 -10 -35 -22 -35 -26 0 -5 -6 -8 -14 -8 -16 0 -31
53 -21 71 4 6 17 8 29 5 11 -3 33 -6 49 -6z m77 -216 c0 -10 -28 -34 -39 -34
-6 0 -11 9 -11 20 0 15 7 20 25 20 14 0 25 -3 25 -6z"/>
<path d="M2260 2525 c0 -11 67 -75 79 -75 19 0 12 20 -16 51 -24 25 -63 40
-63 24z"/>
<path d="M2210 2447 c0 -12 38 -52 67 -70 25 -16 22 14 -4 39 -40 37 -63 48
-63 31z"/>
<path d="M2736 2514 c-10 -27 -7 -34 18 -34 26 0 35 -21 38 -92 2 -64 18 -42
18 26 0 53 -4 67 -25 90 -28 30 -40 33 -49 10z"/>
<path d="M2597 2484 c-3 -3 1 -26 8 -51 11 -35 11 -50 2 -64 -7 -11 -15 -19
-20 -19 -4 0 -17 -9 -28 -19 -47 -44 22 -97 109 -85 47 6 50 5 56 -20 7 -30
27 -26 46 8 8 16 18 22 31 19 14 -4 19 0 19 15 0 12 -9 22 -22 26 -34 9 -38 8
-38 -9 0 -17 -1 -17 -90 -15 -59 1 -100 17 -100 39 0 13 59 29 63 18 2 -6 9
-7 15 -3 17 11 15 60 -5 95 -21 36 -11 51 17 26 30 -28 35 -11 5 19 -24 24
-54 33 -68 20z"/>
<path d="M2707 2373 c-13 -13 -7 -53 8 -53 10 0 15 10 15 30 0 29 -9 38 -23
23z"/>
<path d="M3290 1400 c0 -20 5 -30 15 -30 10 0 15 10 15 30 0 20 -5 30 -15 30
-10 0 -15 -10 -15 -30z"/>
<path d="M3730 4155 c0 -4 7 -21 16 -38 9 -18 21 -40 25 -49 23 -46 33 -114
35 -228 1 -100 4 -124 15 -122 18 5 99 93 99 109 0 29 27 10 37 -24 l10 -38 1
45 c1 47 -15 80 -35 73 -7 -3 -13 -9 -13 -14 0 -12 -63 -98 -72 -99 -3 0 -9
37 -11 83 -7 128 -42 257 -69 257 -5 0 -8 5 -8 11 0 6 -7 17 -15 25 -8 9 -15
12 -15 9z"/>
<path d="M1836 1983 c-23 -21 -39 -27 -68 -26 -44 2 -48 -9 -22 -63 20 -42 88
-83 98 -59 3 10 -1 15 -14 15 -17 0 -70 56 -70 73 0 4 12 7 26 7 26 0 84 48
84 70 0 14 -2 13 -34 -17z"/>
<path d="M1798 1785 c-10 -13 -18 -29 -18 -34 0 -6 -4 -11 -10 -11 -15 0 -12
-37 4 -43 7 -3 23 1 34 9 18 12 25 12 43 2 18 -11 20 -19 15 -62 -3 -27 -11
-53 -18 -58 -7 -4 -8 -8 -3 -8 22 0 47 43 48 86 2 51 -19 73 -70 74 l-31 0 15
31 c19 38 14 45 -9 14z"/>
<path d="M2910 1604 c-25 -19 -58 -46 -75 -59 -49 -38 -148 -124 -214 -185
-15 -14 -47 -41 -71 -60 -25 -19 -56 -45 -70 -57 -14 -13 -29 -23 -33 -23 -5
0 -20 -9 -35 -20 -27 -22 -55 -13 -35 12 6 7 13 47 16 88 3 41 3 66 0 56 -3
-11 -16 -37 -29 -58 -13 -21 -24 -42 -24 -47 0 -5 -7 -22 -15 -37 -8 -16 -15
-43 -15 -61 l0 -31 -30 14 c-50 25 -67 12 -75 -57 -4 -33 -4 -63 -1 -66 3 -4
6 2 6 12 0 31 23 95 34 95 6 0 24 -7 40 -15 16 -8 46 -18 68 -21 21 -4 41 -11
44 -15 3 -5 26 -9 52 -9 42 0 48 3 60 29 7 16 16 46 19 65 3 20 10 36 14 36 5
0 9 7 9 15 0 8 4 15 9 15 5 0 25 15 44 34 20 19 42 38 50 43 9 4 37 29 64 54
l48 46 -4 -181 c-2 -100 1 -217 7 -261 6 -44 14 -115 18 -158 l6 -78 -39 24
c-52 32 -170 87 -188 87 -8 0 -15 5 -15 10 0 6 -6 10 -14 10 -7 0 -27 7 -42
15 -16 8 -39 15 -51 15 -12 0 -24 4 -28 9 -3 6 -26 13 -50 17 -25 3 -48 10
-51 15 -3 5 -19 9 -35 9 -17 0 -39 5 -49 10 -10 6 -45 14 -77 20 -121 19 -219
38 -253 49 -19 5 -57 16 -85 23 -27 6 -53 16 -56 21 -3 4 -25 7 -49 5 -30 -2
-46 -9 -54 -23 -6 -11 -21 -29 -33 -40 -13 -11 -23 -24 -23 -28 0 -10 -16 -29
-55 -67 -20 -20 -25 -30 -15 -30 16 0 57 24 75 44 6 6 28 26 49 45 35 29 44
32 80 27 23 -4 55 -13 71 -20 41 -19 98 -36 118 -36 10 0 25 -4 35 -9 9 -5 73
-19 142 -31 69 -12 133 -26 142 -31 10 -5 28 -9 41 -9 24 0 24 -1 31 -155 3
-85 11 -166 16 -180 6 -15 10 -53 10 -86 l0 -60 -29 22 c-33 24 -65 19 -82
-14 -13 -23 6 -182 22 -193 5 -3 9 -14 9 -25 0 -10 5 -19 10 -19 6 0 10 -10
10 -23 0 -12 6 -32 14 -43 8 -11 16 -31 18 -44 3 -21 9 -25 45 -28 39 -3 41
-2 36 20 -3 13 -9 28 -13 33 -4 6 -15 35 -26 65 -10 30 -21 60 -25 65 -4 6
-10 28 -13 50 l-7 41 42 -4 c33 -3 46 0 56 14 15 21 16 116 2 189 -6 28 -13
68 -16 90 -3 22 -9 45 -13 50 -4 6 -11 34 -15 62 -4 29 -11 55 -16 59 -5 3 -9
18 -9 34 0 16 -4 32 -10 35 -5 3 -10 11 -10 17 0 13 93 1 98 -13 2 -5 18 -9
35 -9 18 0 45 -7 61 -15 15 -8 33 -15 39 -15 17 0 170 -57 227 -84 22 -10 26
-20 33 -86 5 -41 12 -79 18 -85 5 -5 9 -26 9 -47 0 -21 4 -38 9 -38 5 0 12
-25 16 -55 3 -30 11 -57 16 -60 5 -4 9 -17 9 -30 0 -13 4 -26 9 -29 5 -4 12
-24 16 -46 4 -22 10 -42 15 -45 4 -3 11 -21 14 -40 4 -19 11 -35 16 -35 6 0
10 -6 10 -13 0 -8 7 -28 16 -45 14 -29 19 -32 65 -32 27 0 49 2 49 4 0 1 -11
23 -24 48 -30 57 -106 257 -106 280 0 9 -4 19 -9 22 -5 4 -12 25 -16 49 -3 23
-10 51 -15 62 -8 18 -26 108 -36 180 -3 17 -9 53 -15 80 -5 28 -14 97 -20 155
-6 58 -15 141 -19 185 -5 44 -15 147 -21 228 -12 141 -11 148 7 166 55 52 152
181 137 181 -4 0 -28 -16 -53 -36z m-400 -443 c0 -5 -6 -24 -14 -42 -14 -33
-15 -34 -66 -30 l-53 3 29 24 c16 13 35 23 42 24 7 0 20 7 28 15 17 17 34 20
34 6z"/>
<path d="M1833 214 c4 -22 7 -78 7 -126 l0 -88 41 0 42 0 -5 73 c-3 39 -9 81
-15 92 -33 66 -43 80 -59 84 -14 3 -16 -3 -11 -35z"/>
<path d="M3608 3 c7 -3 16 -2 19 1 4 3 -2 6 -13 5 -11 0 -14 -3 -6 -6z"/>
</g>
</svg>
